<?xml version="1.0" encoding="UTF-8" standalone="no"?>
<!-- Created with Inkscape (http://www.inkscape.org/) -->

<svg
   width="8.2125902mm"
   height="10.84833mm"
   viewBox="0 0 8.2125902 10.848329"
   version="1.1"
   id="svg1"
   inkscape:version="1.4.2 (f4327f4, 2025-05-13)"
   sodipodi:docname="mux.svg"
   xmlns:inkscape="http://www.inkscape.org/namespaces/inkscape"
   xmlns:sodipodi="http://sodipodi.sourceforge.net/DTD/sodipodi-0.dtd"
   xmlns="http://www.w3.org/2000/svg"
   xmlns:svg="http://www.w3.org/2000/svg">
  <sodipodi:namedview
     id="namedview1"
     pagecolor="#ffffff"
     bordercolor="#000000"
     borderopacity="0.25"
     inkscape:showpageshadow="2"
     inkscape:pageopacity="0.0"
     inkscape:pagecheckerboard="0"
     inkscape:deskcolor="#d1d1d1"
     inkscape:document-units="mm"
     inkscape:zoom="16.149383"
     inkscape:cx="9.8146166"
     inkscape:cy="16.626023"
     inkscape:window-width="2560"
     inkscape:window-height="1351"
     inkscape:window-x="2391"
     inkscape:window-y="-9"
     inkscape:window-maximized="1"
     inkscape:current-layer="path58" />
  <defs
     id="defs1" />
  <g
     id="path55"
     transform="translate(-230.05501,-159.94044)">
    <path
       style="baseline-shift:baseline;display:inline;overflow:visible;vector-effect:none;stroke-linecap:round;stroke-linejoin:round;enable-background:accumulate;stop-color:#000000;stop-opacity:1"
       d="m 230.1875,163.91016 a 0.13249999,0.13249999 0 0 0 -0.13281,0.13086 0.13249999,0.13249999 0 0 0 0.13281,0.13281 h 1.99805 a 0.13249999,0.13249999 0 0 0 0.13281,-0.13281 0.13249999,0.13249999 0 0 0 -0.13281,-0.13086 z"
       id="path71" />
    <g
       id="g68">
      <g
         id="path68"
         style="opacity:1">
        <path
           style="baseline-shift:baseline;display:inline;overflow:visible;vector-effect:none;fill-rule:evenodd;enable-background:accumulate;stop-color:#000000;stop-opacity:1"
           d="m 232.79769,164.04168 -0.9169,0.53 v -1.06 z"
           id="path69" />
        <path
           style="baseline-shift:baseline;display:inline;overflow:visible;vector-effect:none;fill-rule:evenodd;enable-background:accumulate;stop-color:#000000;stop-opacity:1"
           d="m 231.81055,163.38867 v 1.30469 l 1.1289,-0.65234 z m 0.14062,0.24414 0.70508,0.40821 -0.70508,0.4082 z"
           id="path70" />
      </g>
    </g>
  </g>
  <g
     id="path56"
     transform="translate(-230.05501,-159.94044)">
    <path
       style="baseline-shift:baseline;display:inline;overflow:visible;vector-effect:none;stroke-linecap:round;stroke-linejoin:round;enable-background:accumulate;stop-color:#000000;stop-opacity:1"
       d="m 234.15625,159.94141 a 0.13249999,0.13249999 0 0 0 -0.13281,0.13086 v 2.11718 a 0.13249999,0.13249999 0 0 0 0.13281,0.13282 0.13249999,0.13249999 0 0 0 0.13281,-0.13282 v -2.11718 a 0.13249999,0.13249999 0 0 0 -0.13281,-0.13086 z"
       id="path67" />
    <g
       id="g64">
      <g
         id="path64"
         style="opacity:1">
        <path
           style="baseline-shift:baseline;display:inline;overflow:visible;vector-effect:none;fill-rule:evenodd;enable-background:accumulate;stop-color:#000000;stop-opacity:1"
           d="m 234.15625,162.80122 -0.53,-0.9169 h 1.06 z"
           id="path65" />
        <path
           style="baseline-shift:baseline;display:inline;overflow:visible;vector-effect:none;fill-rule:evenodd;enable-background:accumulate;stop-color:#000000;stop-opacity:1"
           d="m 233.50391,161.81445 0.65234,1.12891 0.65234,-1.12891 z m 0.24414,0.14063 h 0.8164 l -0.4082,0.70508 z"
           id="path66" />
      </g>
    </g>
  </g>
  <g
     id="path57"
     transform="translate(-230.05501,-159.94044)">
    <path
       style="baseline-shift:baseline;display:inline;overflow:visible;vector-effect:none;stroke-linecap:round;stroke-linejoin:round;enable-background:accumulate;stop-color:#000000;stop-opacity:1"
       d="m 230.1875,166.55469 a 0.13249999,0.13249999 0 0 0 -0.13281,0.13281 0.13249999,0.13249999 0 0 0 0.13281,0.13281 h 1.99805 a 0.13249999,0.13249999 0 0 0 0.13281,-0.13281 0.13249999,0.13249999 0 0 0 -0.13281,-0.13281 z"
       id="path75" />
    <g
       id="g72">
      <g
         id="path72"
         style="opacity:1">
        <path
           style="baseline-shift:baseline;display:inline;overflow:visible;vector-effect:none;fill-rule:evenodd;enable-background:accumulate;stop-color:#000000;stop-opacity:1"
           d="m 232.79769,166.68752 -0.9169,0.53 v -1.06 z"
           id="path73" />
        <path
           style="baseline-shift:baseline;display:inline;overflow:visible;vector-effect:none;fill-rule:evenodd;enable-background:accumulate;stop-color:#000000;stop-opacity:1"
           d="m 231.81055,166.03516 v 1.30468 l 1.1289,-0.65234 z m 0.14062,0.24414 0.70508,0.4082 -0.70508,0.4082 z"
           id="path74" />
      </g>
    </g>
  </g>
  <g
     id="path58"
     transform="translate(-230.05501,-159.94044)">
    <path
       style="baseline-shift:baseline;display:inline;overflow:visible;vector-effect:none;stroke-linecap:round;stroke-linejoin:round;enable-background:accumulate;stop-color:#000000;stop-opacity:1"
       d="m 230.1875,169.20117 a 0.13249999,0.13249999 0 0 0 -0.13281,0.13281 0.13249999,0.13249999 0 0 0 0.13281,0.13282 h 1.99805 a 0.13249999,0.13249999 0 0 0 0.13281,-0.13282 0.13249999,0.13249999 0 0 0 -0.13281,-0.13281 z"
       id="path79" />
    <g
       id="g76">
      <g
         id="path76"
         style="opacity:1">
        <path
           style="baseline-shift:baseline;display:inline;overflow:visible;vector-effect:none;fill-rule:evenodd;enable-background:accumulate;stop-color:#000000;stop-opacity:1"
           d="m 232.79769,169.33335 -0.9169,0.53 v -1.06 z"
           id="path77" />
        <path
           style="baseline-shift:baseline;display:inline;overflow:visible;vector-effect:none;fill-rule:evenodd;enable-background:accumulate;stop-color:#000000;stop-opacity:1"
           d="m 231.81055,168.68164 v 1.30469 l 1.1289,-0.65235 z m 0.14062,0.24414 0.70508,0.4082 -0.70508,0.40821 z"
           id="path78" />
      </g>
    </g>
  </g>
  <path
     sodipodi:nodetypes="cc"
     style="fill:none;stroke:#000000;stroke-width:0.265;stroke-linecap:round;stroke-linejoin:round;stroke-miterlimit:4;stroke-dasharray:none;stroke-opacity:1"
     d="M 5.42416,6.74708 H 8.08009"
     id="path59"
     inkscape:connector-curvature="0" />
  <path
     sodipodi:nodetypes="cc"
     style="fill:none;stroke:#000000;stroke-width:0.265;stroke-linecap:round;stroke-linejoin:round;stroke-miterlimit:4;stroke-dasharray:none;stroke-opacity:1"
     d="M 2.77833,2.77833 5.42416,3.3075"
     id="path60"
     inkscape:connector-curvature="0" />
  <path
     sodipodi:nodetypes="cc"
     style="fill:none;stroke:#000000;stroke-width:0.265;stroke-linecap:round;stroke-linejoin:round;stroke-miterlimit:4;stroke-dasharray:none;stroke-opacity:1"
     d="M 2.77833,10.71583 5.42416,10.18666"
     id="path61"
     inkscape:connector-curvature="0" />
  <path
     sodipodi:nodetypes="cc"
     style="fill:none;stroke:#000000;stroke-width:0.265;stroke-linecap:round;stroke-linejoin:round;stroke-miterlimit:4;stroke-dasharray:none;stroke-opacity:1"
     d="M 2.77833,10.71583 V 2.77833"
     id="path62"
     inkscape:connector-curvature="0" />
  <path
     sodipodi:nodetypes="cc"
     style="fill:none;stroke:#000000;stroke-width:0.265;stroke-linecap:round;stroke-linejoin:round;stroke-miterlimit:4;stroke-dasharray:none;stroke-opacity:1"
     d="M 5.42416,10.18666 V 3.3075"
     id="path63"
     inkscape:connector-curvature="0" />
</svg>
